<mxfile host="65bd71144e">
    <diagram id="LeQqoUKb9-bQmIEiHYlI" name="Page-1">
        <mxGraphModel dx="867" dy="797" grid="1" gridSize="10" guides="1" tooltips="1" connect="1" arrows="1" fold="1" page="1" pageScale="1" pageWidth="850" pageHeight="1100" background="none" math="0" shadow="0">
            <root>
                <mxCell id="0"/>
                <mxCell id="1" parent="0"/>
                <mxCell id="56" value="genres" style="shape=table;startSize=30;container=1;collapsible=1;childLayout=tableLayout;fixedRows=1;rowLines=0;fontStyle=1;align=center;resizeLast=1;rounded=1;fillColor=#76608a;strokeColor=#432D57;fontColor=#ffffff;" vertex="1" parent="1">
                    <mxGeometry x="810" y="180" width="180" height="100" as="geometry"/>
                </mxCell>
                <mxCell id="57" value="" style="shape=partialRectangle;collapsible=0;dropTarget=0;pointerEvents=0;fillColor=#76608a;top=0;left=0;bottom=1;right=0;points=[[0,0.5],[1,0.5]];portConstraint=eastwest;strokeColor=#432D57;fontColor=#ffffff;shadow=0;sketch=0;backgroundOutline=0;" vertex="1" parent="56">
                    <mxGeometry y="30" width="180" height="30" as="geometry"/>
                </mxCell>
                <mxCell id="58" value="PK" style="shape=partialRectangle;connectable=0;fillColor=#76608a;top=0;left=0;bottom=0;right=0;fontStyle=1;overflow=hidden;strokeColor=#432D57;fontColor=#ffffff;shadow=0;sketch=0;backgroundOutline=0;" vertex="1" parent="57">
                    <mxGeometry width="30" height="30" as="geometry">
                        <mxRectangle width="30" height="30" as="alternateBounds"/>
                    </mxGeometry>
                </mxCell>
                <mxCell id="59" value="id (uuid)" style="shape=partialRectangle;connectable=0;fillColor=#76608a;top=0;left=0;bottom=0;right=0;align=left;spacingLeft=6;fontStyle=5;overflow=hidden;strokeColor=#432D57;fontColor=#ffffff;shadow=0;sketch=0;backgroundOutline=0;" vertex="1" parent="57">
                    <mxGeometry x="30" width="150" height="30" as="geometry">
                        <mxRectangle width="150" height="30" as="alternateBounds"/>
                    </mxGeometry>
                </mxCell>
                <mxCell id="60" value="" style="shape=partialRectangle;collapsible=0;dropTarget=0;pointerEvents=0;fillColor=#76608a;top=0;left=0;bottom=0;right=0;points=[[0,0.5],[1,0.5]];portConstraint=eastwest;strokeColor=#432D57;fontColor=#ffffff;shadow=0;sketch=0;backgroundOutline=0;" vertex="1" parent="56">
                    <mxGeometry y="60" width="180" height="30" as="geometry"/>
                </mxCell>
                <mxCell id="61" value="" style="shape=partialRectangle;connectable=0;fillColor=#76608a;top=0;left=0;bottom=0;right=0;editable=1;overflow=hidden;strokeColor=#432D57;fontColor=#ffffff;shadow=0;sketch=0;backgroundOutline=0;" vertex="1" parent="60">
                    <mxGeometry width="30" height="30" as="geometry">
                        <mxRectangle width="30" height="30" as="alternateBounds"/>
                    </mxGeometry>
                </mxCell>
                <mxCell id="62" value="title (varchar)" style="shape=partialRectangle;connectable=0;fillColor=#76608a;top=0;left=0;bottom=0;right=0;align=left;spacingLeft=6;overflow=hidden;strokeColor=#432D57;fontColor=#ffffff;shadow=0;sketch=0;backgroundOutline=0;" vertex="1" parent="60">
                    <mxGeometry x="30" width="150" height="30" as="geometry">
                        <mxRectangle width="150" height="30" as="alternateBounds"/>
                    </mxGeometry>
                </mxCell>
                <mxCell id="2" value="users" style="shape=table;startSize=30;container=1;collapsible=1;childLayout=tableLayout;fixedRows=1;rowLines=0;fontStyle=1;align=center;resizeLast=1;rounded=1;fillColor=#76608a;strokeColor=#432D57;fontColor=#ffffff;shadow=0;sketch=0;backgroundOutline=0;" parent="1" vertex="1">
                    <mxGeometry x="245" y="430" width="180" height="220" as="geometry"/>
                </mxCell>
                <mxCell id="3" value="" style="shape=partialRectangle;collapsible=0;dropTarget=0;pointerEvents=0;fillColor=#76608a;top=0;left=0;bottom=1;right=0;points=[[0,0.5],[1,0.5]];portConstraint=eastwest;strokeColor=#432D57;fontColor=#ffffff;shadow=0;sketch=0;backgroundOutline=0;" parent="2" vertex="1">
                    <mxGeometry y="30" width="180" height="30" as="geometry"/>
                </mxCell>
                <mxCell id="4" value="PK" style="shape=partialRectangle;connectable=0;fillColor=#76608a;top=0;left=0;bottom=0;right=0;fontStyle=1;overflow=hidden;strokeColor=#432D57;fontColor=#ffffff;shadow=0;sketch=0;backgroundOutline=0;" parent="3" vertex="1">
                    <mxGeometry width="30" height="30" as="geometry">
                        <mxRectangle width="30" height="30" as="alternateBounds"/>
                    </mxGeometry>
                </mxCell>
                <mxCell id="5" value="id (uuid)" style="shape=partialRectangle;connectable=0;fillColor=#76608a;top=0;left=0;bottom=0;right=0;align=left;spacingLeft=6;fontStyle=5;overflow=hidden;strokeColor=#432D57;fontColor=#ffffff;shadow=0;sketch=0;backgroundOutline=0;" parent="3" vertex="1">
                    <mxGeometry x="30" width="150" height="30" as="geometry">
                        <mxRectangle width="150" height="30" as="alternateBounds"/>
                    </mxGeometry>
                </mxCell>
                <mxCell id="6" value="" style="shape=partialRectangle;collapsible=0;dropTarget=0;pointerEvents=0;fillColor=#76608a;top=0;left=0;bottom=0;right=0;points=[[0,0.5],[1,0.5]];portConstraint=eastwest;strokeColor=#432D57;fontColor=#ffffff;shadow=0;sketch=0;backgroundOutline=0;" parent="2" vertex="1">
                    <mxGeometry y="60" width="180" height="30" as="geometry"/>
                </mxCell>
                <mxCell id="7" value="" style="shape=partialRectangle;connectable=0;fillColor=#76608a;top=0;left=0;bottom=0;right=0;editable=1;overflow=hidden;strokeColor=#432D57;fontColor=#ffffff;shadow=0;sketch=0;backgroundOutline=0;" parent="6" vertex="1">
                    <mxGeometry width="30" height="30" as="geometry">
                        <mxRectangle width="30" height="30" as="alternateBounds"/>
                    </mxGeometry>
                </mxCell>
                <mxCell id="8" value="first_name (varchar)" style="shape=partialRectangle;connectable=0;fillColor=#76608a;top=0;left=0;bottom=0;right=0;align=left;spacingLeft=6;overflow=hidden;strokeColor=#432D57;fontColor=#ffffff;shadow=0;sketch=0;backgroundOutline=0;" parent="6" vertex="1">
                    <mxGeometry x="30" width="150" height="30" as="geometry">
                        <mxRectangle width="150" height="30" as="alternateBounds"/>
                    </mxGeometry>
                </mxCell>
                <mxCell id="9" value="" style="shape=partialRectangle;collapsible=0;dropTarget=0;pointerEvents=0;fillColor=#76608a;top=0;left=0;bottom=0;right=0;points=[[0,0.5],[1,0.5]];portConstraint=eastwest;strokeColor=#432D57;fontColor=#ffffff;shadow=0;sketch=0;backgroundOutline=0;" parent="2" vertex="1">
                    <mxGeometry y="90" width="180" height="30" as="geometry"/>
                </mxCell>
                <mxCell id="10" value="" style="shape=partialRectangle;connectable=0;fillColor=#76608a;top=0;left=0;bottom=0;right=0;editable=1;overflow=hidden;strokeColor=#432D57;fontColor=#ffffff;shadow=0;sketch=0;backgroundOutline=0;" parent="9" vertex="1">
                    <mxGeometry width="30" height="30" as="geometry">
                        <mxRectangle width="30" height="30" as="alternateBounds"/>
                    </mxGeometry>
                </mxCell>
                <mxCell id="11" value="last_name (varchar)" style="shape=partialRectangle;connectable=0;fillColor=#76608a;top=0;left=0;bottom=0;right=0;align=left;spacingLeft=6;overflow=hidden;strokeColor=#432D57;fontColor=#ffffff;shadow=0;sketch=0;backgroundOutline=0;" parent="9" vertex="1">
                    <mxGeometry x="30" width="150" height="30" as="geometry">
                        <mxRectangle width="150" height="30" as="alternateBounds"/>
                    </mxGeometry>
                </mxCell>
                <mxCell id="12" value="" style="shape=partialRectangle;collapsible=0;dropTarget=0;pointerEvents=0;fillColor=#76608a;top=0;left=0;bottom=0;right=0;points=[[0,0.5],[1,0.5]];portConstraint=eastwest;strokeColor=#432D57;fontColor=#ffffff;shadow=0;sketch=0;backgroundOutline=0;" parent="2" vertex="1">
                    <mxGeometry y="120" width="180" height="30" as="geometry"/>
                </mxCell>
                <mxCell id="13" value="" style="shape=partialRectangle;connectable=0;fillColor=#76608a;top=0;left=0;bottom=0;right=0;editable=1;overflow=hidden;strokeColor=#432D57;fontColor=#ffffff;shadow=0;sketch=0;backgroundOutline=0;" parent="12" vertex="1">
                    <mxGeometry width="30" height="30" as="geometry">
                        <mxRectangle width="30" height="30" as="alternateBounds"/>
                    </mxGeometry>
                </mxCell>
                <mxCell id="14" value="email (varchar)" style="shape=partialRectangle;connectable=0;fillColor=#76608a;top=0;left=0;bottom=0;right=0;align=left;spacingLeft=6;overflow=hidden;strokeColor=#432D57;fontColor=#ffffff;shadow=0;sketch=0;backgroundOutline=0;" parent="12" vertex="1">
                    <mxGeometry x="30" width="150" height="30" as="geometry">
                        <mxRectangle width="150" height="30" as="alternateBounds"/>
                    </mxGeometry>
                </mxCell>
                <mxCell id="15" value="" style="shape=partialRectangle;collapsible=0;dropTarget=0;pointerEvents=0;fillColor=#76608a;top=0;left=0;bottom=0;right=0;points=[[0,0.5],[1,0.5]];portConstraint=eastwest;strokeColor=#432D57;fontColor=#ffffff;shadow=0;sketch=0;backgroundOutline=0;" vertex="1" parent="2">
                    <mxGeometry y="150" width="180" height="30" as="geometry"/>
                </mxCell>
                <mxCell id="16" value="" style="shape=partialRectangle;connectable=0;fillColor=#76608a;top=0;left=0;bottom=0;right=0;editable=1;overflow=hidden;strokeColor=#432D57;fontColor=#ffffff;shadow=0;sketch=0;backgroundOutline=0;" vertex="1" parent="15">
                    <mxGeometry width="30" height="30" as="geometry">
                        <mxRectangle width="30" height="30" as="alternateBounds"/>
                    </mxGeometry>
                </mxCell>
                <mxCell id="17" value="created_at (date)" style="shape=partialRectangle;connectable=0;fillColor=#76608a;top=0;left=0;bottom=0;right=0;align=left;spacingLeft=6;overflow=hidden;strokeColor=#432D57;fontColor=#ffffff;shadow=0;sketch=0;backgroundOutline=0;" vertex="1" parent="15">
                    <mxGeometry x="30" width="150" height="30" as="geometry">
                        <mxRectangle width="150" height="30" as="alternateBounds"/>
                    </mxGeometry>
                </mxCell>
                <mxCell id="18" value="" style="shape=partialRectangle;collapsible=0;dropTarget=0;pointerEvents=0;fillColor=#76608a;top=0;left=0;bottom=0;right=0;points=[[0,0.5],[1,0.5]];portConstraint=eastwest;strokeColor=#432D57;fontColor=#ffffff;shadow=0;sketch=0;backgroundOutline=0;" vertex="1" parent="2">
                    <mxGeometry y="180" width="180" height="30" as="geometry"/>
                </mxCell>
                <mxCell id="19" value="" style="shape=partialRectangle;connectable=0;fillColor=#76608a;top=0;left=0;bottom=0;right=0;editable=1;overflow=hidden;strokeColor=#432D57;fontColor=#ffffff;shadow=0;sketch=0;backgroundOutline=0;" vertex="1" parent="18">
                    <mxGeometry width="30" height="30" as="geometry">
                        <mxRectangle width="30" height="30" as="alternateBounds"/>
                    </mxGeometry>
                </mxCell>
                <mxCell id="20" value="updated_at (date)" style="shape=partialRectangle;connectable=0;fillColor=#76608a;top=0;left=0;bottom=0;right=0;align=left;spacingLeft=6;overflow=hidden;strokeColor=#432D57;fontColor=#ffffff;shadow=0;sketch=0;backgroundOutline=0;" vertex="1" parent="18">
                    <mxGeometry x="30" width="150" height="30" as="geometry">
                        <mxRectangle width="150" height="30" as="alternateBounds"/>
                    </mxGeometry>
                </mxCell>
                <mxCell id="21" value="games" style="shape=table;startSize=30;container=1;collapsible=1;childLayout=tableLayout;fixedRows=1;rowLines=0;fontStyle=1;align=center;resizeLast=1;rounded=1;fillColor=#76608a;strokeColor=#432D57;fontColor=#ffffff;shadow=0;sketch=0;backgroundOutline=0;" vertex="1" parent="1">
                    <mxGeometry x="810" y="340" width="180" height="190" as="geometry"/>
                </mxCell>
                <mxCell id="22" value="" style="shape=partialRectangle;collapsible=0;dropTarget=0;pointerEvents=0;fillColor=#76608a;top=0;left=0;bottom=1;right=0;points=[[0,0.5],[1,0.5]];portConstraint=eastwest;strokeColor=#432D57;fontColor=#ffffff;shadow=0;sketch=0;backgroundOutline=0;" vertex="1" parent="21">
                    <mxGeometry y="30" width="180" height="30" as="geometry"/>
                </mxCell>
                <mxCell id="23" value="PK" style="shape=partialRectangle;connectable=0;fillColor=#76608a;top=0;left=0;bottom=0;right=0;fontStyle=1;overflow=hidden;strokeColor=#432D57;fontColor=#ffffff;shadow=0;sketch=0;backgroundOutline=0;" vertex="1" parent="22">
                    <mxGeometry width="30" height="30" as="geometry">
                        <mxRectangle width="30" height="30" as="alternateBounds"/>
                    </mxGeometry>
                </mxCell>
                <mxCell id="24" value="id (uuid)" style="shape=partialRectangle;connectable=0;fillColor=#76608a;top=0;left=0;bottom=0;right=0;align=left;spacingLeft=6;fontStyle=5;overflow=hidden;strokeColor=#432D57;fontColor=#ffffff;shadow=0;sketch=0;backgroundOutline=0;" vertex="1" parent="22">
                    <mxGeometry x="30" width="150" height="30" as="geometry">
                        <mxRectangle width="150" height="30" as="alternateBounds"/>
                    </mxGeometry>
                </mxCell>
                <mxCell id="25" value="" style="shape=partialRectangle;collapsible=0;dropTarget=0;pointerEvents=0;fillColor=#76608a;top=0;left=0;bottom=0;right=0;points=[[0,0.5],[1,0.5]];portConstraint=eastwest;strokeColor=#432D57;fontColor=#ffffff;shadow=0;sketch=0;backgroundOutline=0;" vertex="1" parent="21">
                    <mxGeometry y="60" width="180" height="30" as="geometry"/>
                </mxCell>
                <mxCell id="26" value="" style="shape=partialRectangle;connectable=0;fillColor=#76608a;top=0;left=0;bottom=0;right=0;editable=1;overflow=hidden;strokeColor=#432D57;fontColor=#ffffff;shadow=0;sketch=0;backgroundOutline=0;" vertex="1" parent="25">
                    <mxGeometry width="30" height="30" as="geometry">
                        <mxRectangle width="30" height="30" as="alternateBounds"/>
                    </mxGeometry>
                </mxCell>
                <mxCell id="27" value="first_name (varchar)" style="shape=partialRectangle;connectable=0;fillColor=#76608a;top=0;left=0;bottom=0;right=0;align=left;spacingLeft=6;overflow=hidden;strokeColor=#432D57;fontColor=#ffffff;shadow=0;sketch=0;backgroundOutline=0;" vertex="1" parent="25">
                    <mxGeometry x="30" width="150" height="30" as="geometry">
                        <mxRectangle width="150" height="30" as="alternateBounds"/>
                    </mxGeometry>
                </mxCell>
                <mxCell id="28" value="" style="shape=partialRectangle;collapsible=0;dropTarget=0;pointerEvents=0;fillColor=#76608a;top=0;left=0;bottom=0;right=0;points=[[0,0.5],[1,0.5]];portConstraint=eastwest;strokeColor=#432D57;fontColor=#ffffff;shadow=0;sketch=0;backgroundOutline=0;" vertex="1" parent="21">
                    <mxGeometry y="90" width="180" height="30" as="geometry"/>
                </mxCell>
                <mxCell id="29" value="" style="shape=partialRectangle;connectable=0;fillColor=#76608a;top=0;left=0;bottom=0;right=0;editable=1;overflow=hidden;strokeColor=#432D57;fontColor=#ffffff;shadow=0;sketch=0;backgroundOutline=0;" vertex="1" parent="28">
                    <mxGeometry width="30" height="30" as="geometry">
                        <mxRectangle width="30" height="30" as="alternateBounds"/>
                    </mxGeometry>
                </mxCell>
                <mxCell id="30" value="title (varchar)" style="shape=partialRectangle;connectable=0;fillColor=#76608a;top=0;left=0;bottom=0;right=0;align=left;spacingLeft=6;overflow=hidden;strokeColor=#432D57;fontColor=#ffffff;shadow=0;sketch=0;backgroundOutline=0;" vertex="1" parent="28">
                    <mxGeometry x="30" width="150" height="30" as="geometry">
                        <mxRectangle width="150" height="30" as="alternateBounds"/>
                    </mxGeometry>
                </mxCell>
                <mxCell id="34" value="" style="shape=partialRectangle;collapsible=0;dropTarget=0;pointerEvents=0;fillColor=#76608a;top=0;left=0;bottom=0;right=0;points=[[0,0.5],[1,0.5]];portConstraint=eastwest;strokeColor=#432D57;fontColor=#ffffff;shadow=0;sketch=0;backgroundOutline=0;" vertex="1" parent="21">
                    <mxGeometry y="120" width="180" height="30" as="geometry"/>
                </mxCell>
                <mxCell id="35" value="" style="shape=partialRectangle;connectable=0;fillColor=#76608a;top=0;left=0;bottom=0;right=0;editable=1;overflow=hidden;strokeColor=#432D57;fontColor=#ffffff;shadow=0;sketch=0;backgroundOutline=0;" vertex="1" parent="34">
                    <mxGeometry width="30" height="30" as="geometry">
                        <mxRectangle width="30" height="30" as="alternateBounds"/>
                    </mxGeometry>
                </mxCell>
                <mxCell id="36" value="created_at (date)" style="shape=partialRectangle;connectable=0;fillColor=#76608a;top=0;left=0;bottom=0;right=0;align=left;spacingLeft=6;overflow=hidden;strokeColor=#432D57;fontColor=#ffffff;shadow=0;sketch=0;backgroundOutline=0;" vertex="1" parent="34">
                    <mxGeometry x="30" width="150" height="30" as="geometry">
                        <mxRectangle width="150" height="30" as="alternateBounds"/>
                    </mxGeometry>
                </mxCell>
                <mxCell id="37" value="" style="shape=partialRectangle;collapsible=0;dropTarget=0;pointerEvents=0;fillColor=#76608a;top=0;left=0;bottom=0;right=0;points=[[0,0.5],[1,0.5]];portConstraint=eastwest;strokeColor=#432D57;fontColor=#ffffff;shadow=0;sketch=0;backgroundOutline=0;" vertex="1" parent="21">
                    <mxGeometry y="150" width="180" height="30" as="geometry"/>
                </mxCell>
                <mxCell id="38" value="" style="shape=partialRectangle;connectable=0;fillColor=#76608a;top=0;left=0;bottom=0;right=0;editable=1;overflow=hidden;strokeColor=#432D57;fontColor=#ffffff;shadow=0;sketch=0;backgroundOutline=0;" vertex="1" parent="37">
                    <mxGeometry width="30" height="30" as="geometry">
                        <mxRectangle width="30" height="30" as="alternateBounds"/>
                    </mxGeometry>
                </mxCell>
                <mxCell id="39" value="updated_at (date)" style="shape=partialRectangle;connectable=0;fillColor=#76608a;top=0;left=0;bottom=0;right=0;align=left;spacingLeft=6;overflow=hidden;strokeColor=#432D57;fontColor=#ffffff;shadow=0;sketch=0;backgroundOutline=0;" vertex="1" parent="37">
                    <mxGeometry x="30" width="150" height="30" as="geometry">
                        <mxRectangle width="150" height="30" as="alternateBounds"/>
                    </mxGeometry>
                </mxCell>
                <mxCell id="40" value="users_games" style="shape=table;startSize=30;container=1;collapsible=1;childLayout=tableLayout;fixedRows=1;rowLines=0;fontStyle=1;align=center;resizeLast=1;rounded=1;fillColor=#76608a;strokeColor=#432D57;fontColor=#ffffff;shadow=0;sketch=0;backgroundOutline=0;" vertex="1" parent="1">
                    <mxGeometry x="500" y="380" width="180" height="100" as="geometry"/>
                </mxCell>
                <mxCell id="44" value="" style="shape=partialRectangle;collapsible=0;dropTarget=0;pointerEvents=0;fillColor=#76608a;top=0;left=0;bottom=0;right=0;points=[[0,0.5],[1,0.5]];portConstraint=eastwest;strokeColor=#432D57;fontColor=#ffffff;shadow=0;sketch=0;backgroundOutline=0;" vertex="1" parent="40">
                    <mxGeometry y="30" width="180" height="30" as="geometry"/>
                </mxCell>
                <mxCell id="45" value="FK" style="shape=partialRectangle;connectable=0;fillColor=#76608a;top=0;left=0;bottom=0;right=0;editable=1;overflow=hidden;strokeColor=#432D57;fontColor=#ffffff;shadow=0;sketch=0;backgroundOutline=0;" vertex="1" parent="44">
                    <mxGeometry width="30" height="30" as="geometry">
                        <mxRectangle width="30" height="30" as="alternateBounds"/>
                    </mxGeometry>
                </mxCell>
                <mxCell id="46" value="usersId (uuid)" style="shape=partialRectangle;connectable=0;fillColor=#76608a;top=0;left=0;bottom=0;right=0;align=left;spacingLeft=6;overflow=hidden;strokeColor=#432D57;fontColor=#ffffff;shadow=0;sketch=0;backgroundOutline=0;" vertex="1" parent="44">
                    <mxGeometry x="30" width="150" height="30" as="geometry">
                        <mxRectangle width="150" height="30" as="alternateBounds"/>
                    </mxGeometry>
                </mxCell>
                <mxCell id="47" value="" style="shape=partialRectangle;collapsible=0;dropTarget=0;pointerEvents=0;fillColor=#76608a;top=0;left=0;bottom=0;right=0;points=[[0,0.5],[1,0.5]];portConstraint=eastwest;strokeColor=#432D57;fontColor=#ffffff;shadow=0;sketch=0;backgroundOutline=0;" vertex="1" parent="40">
                    <mxGeometry y="60" width="180" height="30" as="geometry"/>
                </mxCell>
                <mxCell id="48" value="FK" style="shape=partialRectangle;connectable=0;fillColor=#76608a;top=0;left=0;bottom=0;right=0;editable=1;overflow=hidden;strokeColor=#432D57;fontColor=#ffffff;shadow=0;sketch=0;backgroundOutline=0;" vertex="1" parent="47">
                    <mxGeometry width="30" height="30" as="geometry">
                        <mxRectangle width="30" height="30" as="alternateBounds"/>
                    </mxGeometry>
                </mxCell>
                <mxCell id="49" value="gamesId (uuid)" style="shape=partialRectangle;connectable=0;fillColor=#76608a;top=0;left=0;bottom=0;right=0;align=left;spacingLeft=6;overflow=hidden;strokeColor=#432D57;fontColor=#ffffff;shadow=0;sketch=0;backgroundOutline=0;" vertex="1" parent="47">
                    <mxGeometry x="30" width="150" height="30" as="geometry">
                        <mxRectangle width="150" height="30" as="alternateBounds"/>
                    </mxGeometry>
                </mxCell>
                <mxCell id="54" value="" style="edgeStyle=entityRelationEdgeStyle;fontSize=12;html=1;endArrow=ERoneToMany;startArrow=ERoneToMany;fontColor=#1A1A1A;fillColor=#76608a;strokeColor=#432D57;shadow=0;sketch=0;backgroundOutline=0;" edge="1" parent="1" source="44" target="3">
                    <mxGeometry width="100" height="100" relative="1" as="geometry">
                        <mxPoint x="360" y="400" as="sourcePoint"/>
                        <mxPoint x="460" y="300" as="targetPoint"/>
                    </mxGeometry>
                </mxCell>
                <mxCell id="55" value="" style="edgeStyle=entityRelationEdgeStyle;fontSize=12;html=1;endArrow=ERoneToMany;startArrow=ERoneToMany;fontColor=#1A1A1A;fillColor=#76608a;strokeColor=#432D57;shadow=0;sketch=0;backgroundOutline=0;" edge="1" parent="1" source="47" target="22">
                    <mxGeometry width="100" height="100" relative="1" as="geometry">
                        <mxPoint x="590" y="410" as="sourcePoint"/>
                        <mxPoint x="690" y="310" as="targetPoint"/>
                    </mxGeometry>
                </mxCell>
                <mxCell id="72" value="genres_games" style="shape=table;startSize=30;container=1;collapsible=1;childLayout=tableLayout;fixedRows=1;rowLines=0;fontStyle=1;align=center;resizeLast=1;rounded=1;fillColor=#76608a;strokeColor=#432D57;fontColor=#ffffff;shadow=0;sketch=0;backgroundOutline=0;" vertex="1" parent="1">
                    <mxGeometry x="490" y="220" width="180" height="100" as="geometry"/>
                </mxCell>
                <mxCell id="73" value="" style="shape=partialRectangle;collapsible=0;dropTarget=0;pointerEvents=0;fillColor=#76608a;top=0;left=0;bottom=0;right=0;points=[[0,0.5],[1,0.5]];portConstraint=eastwest;strokeColor=#432D57;fontColor=#ffffff;shadow=0;sketch=0;backgroundOutline=0;" vertex="1" parent="72">
                    <mxGeometry y="30" width="180" height="30" as="geometry"/>
                </mxCell>
                <mxCell id="74" value="FK" style="shape=partialRectangle;connectable=0;fillColor=#76608a;top=0;left=0;bottom=0;right=0;editable=1;overflow=hidden;strokeColor=#432D57;fontColor=#ffffff;shadow=0;sketch=0;backgroundOutline=0;" vertex="1" parent="73">
                    <mxGeometry width="30" height="30" as="geometry">
                        <mxRectangle width="30" height="30" as="alternateBounds"/>
                    </mxGeometry>
                </mxCell>
                <mxCell id="75" value="genresId (uuid)" style="shape=partialRectangle;connectable=0;fillColor=#76608a;top=0;left=0;bottom=0;right=0;align=left;spacingLeft=6;overflow=hidden;strokeColor=#432D57;fontColor=#ffffff;shadow=0;sketch=0;backgroundOutline=0;" vertex="1" parent="73">
                    <mxGeometry x="30" width="150" height="30" as="geometry">
                        <mxRectangle width="150" height="30" as="alternateBounds"/>
                    </mxGeometry>
                </mxCell>
                <mxCell id="76" value="" style="shape=partialRectangle;collapsible=0;dropTarget=0;pointerEvents=0;fillColor=#76608a;top=0;left=0;bottom=0;right=0;points=[[0,0.5],[1,0.5]];portConstraint=eastwest;strokeColor=#432D57;fontColor=#ffffff;shadow=0;sketch=0;backgroundOutline=0;" vertex="1" parent="72">
                    <mxGeometry y="60" width="180" height="30" as="geometry"/>
                </mxCell>
                <mxCell id="77" value="FK" style="shape=partialRectangle;connectable=0;fillColor=#76608a;top=0;left=0;bottom=0;right=0;editable=1;overflow=hidden;strokeColor=#432D57;fontColor=#ffffff;shadow=0;sketch=0;backgroundOutline=0;" vertex="1" parent="76">
                    <mxGeometry width="30" height="30" as="geometry">
                        <mxRectangle width="30" height="30" as="alternateBounds"/>
                    </mxGeometry>
                </mxCell>
                <mxCell id="78" value="gamesId (uuid)" style="shape=partialRectangle;connectable=0;fillColor=#76608a;top=0;left=0;bottom=0;right=0;align=left;spacingLeft=6;overflow=hidden;strokeColor=#432D57;fontColor=#ffffff;shadow=0;sketch=0;backgroundOutline=0;" vertex="1" parent="76">
                    <mxGeometry x="30" width="150" height="30" as="geometry">
                        <mxRectangle width="150" height="30" as="alternateBounds"/>
                    </mxGeometry>
                </mxCell>
                <mxCell id="79" value="" style="edgeStyle=entityRelationEdgeStyle;fontSize=12;html=1;endArrow=ERoneToMany;startArrow=ERoneToMany;fontColor=#1A1A1A;fillColor=#76608a;strokeColor=#432D57;shadow=0;sketch=0;backgroundOutline=0;" edge="1" parent="1" source="73" target="57">
                    <mxGeometry width="100" height="100" relative="1" as="geometry">
                        <mxPoint x="570" y="410" as="sourcePoint"/>
                        <mxPoint x="670" y="310" as="targetPoint"/>
                    </mxGeometry>
                </mxCell>
                <mxCell id="80" value="" style="edgeStyle=entityRelationEdgeStyle;fontSize=12;html=1;endArrow=ERoneToMany;startArrow=ERoneToMany;fontColor=#1A1A1A;fillColor=#76608a;strokeColor=#432D57;shadow=0;sketch=0;backgroundOutline=0;" edge="1" parent="1" source="76" target="22">
                    <mxGeometry width="100" height="100" relative="1" as="geometry">
                        <mxPoint x="570" y="410" as="sourcePoint"/>
                        <mxPoint x="670" y="310" as="targetPoint"/>
                    </mxGeometry>
                </mxCell>
                <mxCell id="81" value="orders" style="shape=table;startSize=30;container=1;collapsible=1;childLayout=tableLayout;fixedRows=1;rowLines=0;fontStyle=1;align=center;resizeLast=1;rounded=1;fillColor=#76608a;strokeColor=#432D57;fontColor=#ffffff;shadow=0;sketch=0;backgroundOutline=0;" vertex="1" parent="1">
                    <mxGeometry x="500" y="520" width="180" height="100" as="geometry"/>
                </mxCell>
                <mxCell id="85" value="" style="shape=partialRectangle;collapsible=0;dropTarget=0;pointerEvents=0;fillColor=#76608a;top=0;left=0;bottom=0;right=0;points=[[0,0.5],[1,0.5]];portConstraint=eastwest;strokeColor=#432D57;fontColor=#ffffff;shadow=0;sketch=0;backgroundOutline=0;" vertex="1" parent="81">
                    <mxGeometry y="30" width="180" height="30" as="geometry"/>
                </mxCell>
                <mxCell id="86" value="FK" style="shape=partialRectangle;connectable=0;fillColor=#76608a;top=0;left=0;bottom=0;right=0;editable=1;overflow=hidden;strokeColor=#432D57;fontColor=#ffffff;shadow=0;sketch=0;backgroundOutline=0;" vertex="1" parent="85">
                    <mxGeometry width="30" height="30" as="geometry">
                        <mxRectangle width="30" height="30" as="alternateBounds"/>
                    </mxGeometry>
                </mxCell>
                <mxCell id="87" value="usersId" style="shape=partialRectangle;connectable=0;fillColor=#76608a;top=0;left=0;bottom=0;right=0;align=left;spacingLeft=6;overflow=hidden;strokeColor=#432D57;fontColor=#ffffff;shadow=0;sketch=0;backgroundOutline=0;" vertex="1" parent="85">
                    <mxGeometry x="30" width="150" height="30" as="geometry">
                        <mxRectangle width="150" height="30" as="alternateBounds"/>
                    </mxGeometry>
                </mxCell>
                <mxCell id="88" value="" style="shape=partialRectangle;collapsible=0;dropTarget=0;pointerEvents=0;fillColor=#76608a;top=0;left=0;bottom=0;right=0;points=[[0,0.5],[1,0.5]];portConstraint=eastwest;strokeColor=#432D57;fontColor=#ffffff;shadow=0;sketch=0;backgroundOutline=0;" vertex="1" parent="81">
                    <mxGeometry y="60" width="180" height="30" as="geometry"/>
                </mxCell>
                <mxCell id="89" value="FK" style="shape=partialRectangle;connectable=0;fillColor=#76608a;top=0;left=0;bottom=0;right=0;editable=1;overflow=hidden;strokeColor=#432D57;fontColor=#ffffff;shadow=0;sketch=0;backgroundOutline=0;" vertex="1" parent="88">
                    <mxGeometry width="30" height="30" as="geometry">
                        <mxRectangle width="30" height="30" as="alternateBounds"/>
                    </mxGeometry>
                </mxCell>
                <mxCell id="90" value="gamesId" style="shape=partialRectangle;connectable=0;fillColor=#76608a;top=0;left=0;bottom=0;right=0;align=left;spacingLeft=6;overflow=hidden;strokeColor=#432D57;fontColor=#ffffff;shadow=0;sketch=0;backgroundOutline=0;" vertex="1" parent="88">
                    <mxGeometry x="30" width="150" height="30" as="geometry">
                        <mxRectangle width="150" height="30" as="alternateBounds"/>
                    </mxGeometry>
                </mxCell>
                <mxCell id="94" value="" style="edgeStyle=entityRelationEdgeStyle;fontSize=12;html=1;endArrow=ERoneToMany;startArrow=ERoneToMany;fontColor=#1A1A1A;fillColor=#76608a;strokeColor=#432D57;shadow=0;sketch=0;backgroundOutline=0;" edge="1" parent="1" source="88" target="22">
                    <mxGeometry width="100" height="100" relative="1" as="geometry">
                        <mxPoint x="570" y="560" as="sourcePoint"/>
                        <mxPoint x="670" y="460" as="targetPoint"/>
                    </mxGeometry>
                </mxCell>
                <mxCell id="95" value="" style="edgeStyle=entityRelationEdgeStyle;fontSize=12;html=1;endArrow=ERoneToMany;startArrow=ERoneToMany;fontColor=#1A1A1A;fillColor=#76608a;strokeColor=#432D57;shadow=0;sketch=0;backgroundOutline=0;" edge="1" parent="1" source="3" target="85">
                    <mxGeometry width="100" height="100" relative="1" as="geometry">
                        <mxPoint x="570" y="560" as="sourcePoint"/>
                        <mxPoint x="670" y="460" as="targetPoint"/>
                    </mxGeometry>
                </mxCell>
            </root>
        </mxGraphModel>
    </diagram>
</mxfile>